# xmcd
#
# Track frame offsets:
#	150
#	18153
#	34765
#	49447
#	68308
#	85931
#	97786
#	113502
#	132188
#	149615
#	166952
#
# Disc length: 2382 seconds
#
# Revision: 1
# Processed by: cddbd v1.5.2PL0 Copyright (c) Steve Scherf et al.
# Submitted via: audiograbber 1.83.01
#
DISCID=84094c0b
DTITLE=Jack White - Lazaretto
DYEAR=2014
DGENRE=Rock
TTITLE0=Three Women
TTITLE1=Lazaretto
TTITLE2=Temporary Ground
TTITLE3=Would You Fight for My Love?
TTITLE4=High Ball Stepper
TTITLE5=Just One Drink
TTITLE6=Alone in My home
TTITLE7=Entitlement
TTITLE8=That Black Bat Licorice
TTITLE9=I Think I Found The Culprit
TTITLE10=Want and Able
EXTD=
EXTT0=
EXTT1=
EXTT2=
EXTT3=
EXTT4=
EXTT5=
EXTT6=
EXTT7=
EXTT8=
EXTT9=
EXTT10=
PLAYORDER=
